0
SECTION
2
HEADER
9
$INSUNITS
70
4
9
$ACADVER
1
AC1014
9
$HANDSEED
5
FFFF
0
ENDSEC
0
SECTION
2
TABLES
0
TABLE
2
VPORT
5
8
100
AcDbSymbolTable
0
ENDTAB
0
TABLE
2
LTYPE
5
5
100
AcDbSymbolTable
0
LTYPE
5
14
100
AcDbSymbolTableRecord
100
AcDbLinetypeTableRecord
2
BYBLOCK
70
0
0
LTYPE
5
15
100
AcDbSymbolTableRecord
100
AcDbLinetypeTableRecord
2
BYLAYER
70
0
0
ENDTAB
0
TABLE
2
LAYER
5
2
100
AcDbSymbolTable
70
2
0
LAYER
5
50
100
AcDbSymbolTableRecord
100
AcDbLayerTableRecord
2
0
70
0
6
CONTINUOUS
0
ENDTAB
0
TABLE
2
STYLE
5
3
100
AcDbSymbolTable
70
1
0
STYLE
5
11
100
AcDbSymbolTableRecord
100
AcDbTextStyleTableRecord
2
STANDARD
70
0
0
ENDTAB
0
TABLE
2
VIEW
5
6
100
AcDbSymbolTable
70
0
0
ENDTAB
0
TABLE
2
UCS
5
7
100
AcDbSymbolTable
70
0
0
ENDTAB
0
TABLE
2
APPID
5
9
100
AcDbSymbolTable
70
2
0
APPID
5
12
100
AcDbSymbolTableRecord
100
AcDbRegAppTableRecord
2
ACAD
70
0
0
ENDTAB
0
TABLE
2
DIMSTYLE
5
A
100
AcDbSymbolTable
70
1
0
ENDTAB
0
TABLE
2
BLOCK_RECORD
5
1
100
AcDbSymbolTable
70
1
0
BLOCK_RECORD
5
1F
100
AcDbSymbolTableRecord
100
AcDbBlockTableRecord
2
*MODEL_SPACE
0
BLOCK_RECORD
5
1B
100
AcDbSymbolTableRecord
100
AcDbBlockTableRecord
2
*PAPER_SPACE
0
ENDTAB
0
ENDSEC
0
SECTION
2
BLOCKS
0
BLOCK
5
20
100
AcDbEntity
100
AcDbBlockBegin
2
*MODEL_SPACE
0
ENDBLK
5
21
100
AcDbEntity
100
AcDbBlockEnd
0
BLOCK
5
1C
100
AcDbEntity
100
AcDbBlockBegin
2
*PAPER_SPACE
0
ENDBLK
5
1D
100
AcDbEntity
100
AcDbBlockEnd
0
ENDSEC
0
SECTION
2
ENTITIES
0
LINE
5
100
100
AcDbEntity
8
0
100
AcDbLine
10
0
20
0
30
0
11
200
21
0
31
0
0
LINE
5
101
100
AcDbEntity
8
0
100
AcDbLine
10
199.44400000000002
20
0.050000000000000003
30
0
11
200
21
0
31
0
0
LINE
5
102
100
AcDbEntity
8
0
100
AcDbLine
10
199.464
20
0.16800000000000004
30
0
11
200
21
0
31
0
0
SPLINE
5
103
100
AcDbEntity
8
0
100
AcDbSpline
70
4
71
5
72
309
73
303
74
0
42
0.000000001
43
0.0000000001
44
0.0000000001
40
0.0051093375740761046
40
0.0051093375740761046
40
0.0051093375740761046
40
0.0051093375740761046
40
0.0051093375740761046
40
0.0051093375740761046
40
0.0066666666666666671
40
0.01
40
0.013333333333333334
40
0.016666666666666666
40
0.02
40
0.023333333333333334
40
0.026666666666666668
40
0.030000000000000002
40
0.033333333333333333
40
0.036666666666666667
40
0.040000000000000001
40
0.043333333333333335
40
0.046666666666666669
40
0.050000000000000003
40
0.053333333333333337
40
0.056666666666666671
40
0.060000000000000005
40
0.063333333333333339
40
0.066666666666666666
40
0.069999999999999993
40
0.07333333333333332
40
0.076666666666666647
40
0.079999999999999974
40
0.083333333333333301
40
0.086666666666666628
40
0.089999999999999955
40
0.093333333333333282
40
0.096666666666666609
40
0.099999999999999936
40
0.10333333333333326
40
0.10666666666666659
40
0.10999999999999992
40
0.11333333333333324
40
0.11666666666666657
40
0.1199999999999999
40
0.12333333333333323
40
0.12666666666666657
40
0.12999999999999989
40
0.13333333333333322
40
0.13666666666666655
40
0.13999999999999987
40
0.1433333333333332
40
0.14666666666666653
40
0.14999999999999986
40
0.15333333333333318
40
0.15666666666666651
40
0.15999999999999984
40
0.16333333333333316
40
0.16666666666666649
40
0.16999999999999982
40
0.17333333333333314
40
0.17666666666666647
40
0.1799999999999998
40
0.18333333333333313
40
0.18666666666666645
40
0.18999999999999978
40
0.19333333333333311
40
0.19666666666666643
40
0.19999999999999976
40
0.20333333333333309
40
0.20666666666666642
40
0.20999999999999974
40
0.21333333333333307
40
0.2166666666666664
40
0.21999999999999972
40
0.22333333333333305
40
0.22666666666666638
40
0.2299999999999997
40
0.23333333333333303
40
0.23666666666666636
40
0.23999999999999969
40
0.24333333333333301
40
0.24666666666666634
40
0.24999999999999967
40
0.25333333333333302
40
0.25666666666666638
40
0.25999999999999973
40
0.26333333333333309
40
0.26666666666666644
40
0.2699999999999998
40
0.27333333333333315
40
0.27666666666666651
40
0.27999999999999986
40
0.28333333333333321
40
0.28666666666666657
40
0.28999999999999992
40
0.29333333333333328
40
0.29666666666666663
40
0.29999999999999999
40
0.30333333333333334
40
0.3066666666666667
40
0.31000000000000005
40
0.31333333333333341
40
0.31666666666666676
40
0.32000000000000012
40
0.32333333333333347
40
0.32666666666666683
40
0.33000000000000018
40
0.33333333333333354
40
0.33666666666666689
40
0.34000000000000025
40
0.3433333333333336
40
0.34666666666666696
40
0.35000000000000031
40
0.35333333333333367
40
0.35666666666666702
40
0.36000000000000038
40
0.36333333333333373
40
0.36666666666666708
40
0.37000000000000044
40
0.37333333333333379
40
0.37666666666666715
40
0.3800000000000005
40
0.38333333333333386
40
0.38666666666666721
40
0.39000000000000057
40
0.39333333333333392
40
0.39666666666666728
40
0.40000000000000063
40
0.40333333333333399
40
0.40666666666666734
40
0.4100000000000007
40
0.41333333333333405
40
0.41666666666666741
40
0.42000000000000076
40
0.42333333333333412
40
0.42666666666666747
40
0.43000000000000083
40
0.43333333333333418
40
0.43666666666666754
40
0.44000000000000089
40
0.44333333333333425
40
0.4466666666666676
40
0.45000000000000095
40
0.45333333333333431
40
0.45666666666666766
40
0.46000000000000102
40
0.46333333333333437
40
0.46666666666666773
40
0.47000000000000108
40
0.47333333333333444
40
0.47666666666666779
40
0.48000000000000115
40
0.4833333333333345
40
0.48666666666666786
40
0.49000000000000121
40
0.49333333333333457
40
0.49666666666666792
40
0.50000000000000122
40
0.50333333333333452
40
0.50666666666666782
40
0.51000000000000112
40
0.51333333333333442
40
0.51666666666666772
40
0.52000000000000102
40
0.52333333333333432
40
0.52666666666666762
40
0.53000000000000091
40
0.53333333333333421
40
0.53666666666666751
40
0.54000000000000081
40
0.54333333333333411
40
0.54666666666666741
40
0.55000000000000071
40
0.55333333333333401
40
0.55666666666666731
40
0.56000000000000061
40
0.56333333333333391
40
0.56666666666666721
40
0.57000000000000051
40
0.57333333333333381
40
0.5766666666666671
40
0.5800000000000004
40
0.5833333333333337
40
0.586666666666667
40
0.5900000000000003
40
0.5933333333333336
40
0.5966666666666669
40
0.6000000000000002
40
0.6033333333333335
40
0.6066666666666668
40
0.6100000000000001
40
0.6133333333333334
40
0.6166666666666667
40
0.62
40
0.62333333333333329
40
0.62666666666666659
40
0.62999999999999989
40
0.63333333333333319
40
0.63666666666666649
40
0.63999999999999979
40
0.64333333333333309
40
0.64666666666666639
40
0.64999999999999969
40
0.65333333333333299
40
0.65666666666666629
40
0.65999999999999959
40
0.66333333333333289
40
0.66666666666666619
40
0.66999999999999948
40
0.67333333333333278
40
0.67666666666666608
40
0.67999999999999938
40
0.68333333333333268
40
0.68666666666666598
40
0.68999999999999928
40
0.69333333333333258
40
0.69666666666666588
40
0.69999999999999918
40
0.70333333333333248
40
0.70666666666666578
40
0.70999999999999908
40
0.71333333333333238
40
0.71666666666666567
40
0.71999999999999897
40
0.72333333333333227
40
0.72666666666666557
40
0.72999999999999887
40
0.73333333333333217
40
0.73666666666666547
40
0.73999999999999877
40
0.74333333333333207
40
0.74666666666666537
40
0.74999999999999867
40
0.75333333333333197
40
0.75666666666666527
40
0.75999999999999857
40
0.76333333333333186
40
0.76666666666666516
40
0.76999999999999846
40
0.77333333333333176
40
0.77666666666666506
40
0.77999999999999836
40
0.78333333333333166
40
0.78666666666666496
40
0.78999999999999826
40
0.79333333333333156
40
0.79666666666666486
40
0.79999999999999816
40
0.80333333333333146
40
0.80666666666666476
40
0.80999999999999805
40
0.81333333333333135
40
0.81666666666666465
40
0.81999999999999795
40
0.82333333333333125
40
0.82666666666666455
40
0.82999999999999785
40
0.83333333333333115
40
0.83666666666666445
40
0.83999999999999775
40
0.84333333333333105
40
0.84666666666666435
40
0.84999999999999765
40
0.85333333333333095
40
0.85666666666666424
40
0.85999999999999754
40
0.86333333333333084
40
0.86666666666666414
40
0.86999999999999744
40
0.87333333333333074
40
0.87666666666666404
40
0.87999999999999734
40
0.88333333333333064
40
0.88666666666666394
40
0.88999999999999724
40
0.89333333333333054
40
0.89666666666666384
40
0.89999999999999714
40
0.90333333333333043
40
0.90666666666666373
40
0.90999999999999703
40
0.91333333333333033
40
0.91666666666666363
40
0.91999999999999693
40
0.92333333333333023
40
0.92666666666666353
40
0.92999999999999683
40
0.93333333333333013
40
0.93666666666666343
40
0.93999999999999673
40
0.94333333333333003
40
0.94666666666666333
40
0.94999999999999662
40
0.95333333333332992
40
0.95666666666666322
40
0.95999999999999652
40
0.96333333333332982
40
0.96666666666666312
40
0.96999999999999642
40
0.97333333333332972
40
0.97666666666666302
40
0.97999999999999632
40
0.98333333333332962
40
0.98666666666666292
40
0.98999999999999622
40
0.99333333333332952
40
0.99490552642979457
40
0.99490552642979457
40
0.99490552642979457
40
0.99490552642979457
40
0.99490552642979457
40
0.99490552642979457
41
1
41
1
41
1
41
1
41
1
41
1
41
1
41
1
41
1
41
1
41
1
41
1
41
1
41
1
41
1
41
1
41
1
41
1
41
1
41
1
41
1
41
1
41
1
41
1
41
1
41
1
41
1
41
1
41
1
41
1
41
1
41
1
41
1
41
1
41
1
41
1
41
1
41
1
41
1
41
1
41
1
41
1
41
1
41
1
41
1
41
1
41
1
41
1
41
1
41
1
41
1
41
1
41
1
41
1
41
1
41
1
41
1
41
1
41
1
41
1
41
1
41
1
41
1
41
1
41
1
41
1
41
1
41
1
41
1
41
1
41
1
41
1
41
1
41
1
41
1
41
1
41
1
41
1
41
1
41
1
41
1
41
1
41
1
41
1
41
1
41
1
41
1
41
1
41
1
41
1
41
1
41
1
41
1
41
1
41
1
41
1
41
1
41
1
41
1
41
1
41
1
41
1
41
1
41
1
41
1
41
1
41
1
41
1
41
1
41
1
41
1
41
1
41
1
41
1
41
1
41
1
41
1
41
1
41
1
41
1
41
1
41
1
41
1
41
1
41
1
41
1
41
1
41
1
41
1
41
1
41
1
41
1
41
1
41
1
41
1
41
1
41
1
41
1
41
1
41
1
41
1
41
1
41
1
41
1
41
1
41
1
41
1
41
1
41
1
41
1
41
1
41
1
41
1
41
1
41
1
41
1
41
1
41
1
41
1
41
1
41
1
41
1
41
1
41
1
41
1
41
1
41
1
41
1
41
1
41
1
41
1
41
1
41
1
41
1
41
1
41
1
41
1
41
1
41
1
41
1
41
1
41
1
41
1
41
1
41
1
41
1
41
1
41
1
41
1
41
1
41
1
41
1
41
1
41
1
41
1
41
1
41
1
41
1
41
1
41
1
41
1
41
1
41
1
41
1
41
1
41
1
41
1
41
1
41
1
41
1
41
1
41
1
41
1
41
1
41
1
41
1
41
1
41
1
41
1
41
1
41
1
41
1
41
1
41
1
41
1
41
1
41
1
41
1
41
1
41
1
41
1
41
1
41
1
41
1
41
1
41
1
41
1
41
1
41
1
41
1
41
1
41
1
41
1
41
1
41
1
41
1
41
1
41
1
41
1
41
1
41
1
41
1
41
1
41
1
41
1
41
1
41
1
41
1
41
1
41
1
41
1
41
1
41
1
41
1
41
1
41
1
41
1
41
1
41
1
41
1
41
1
41
1
41
1
41
1
41
1
41
1
41
1
41
1
41
1
41
1
41
1
41
1
41
1
41
1
41
1
41
1
41
1
41
1
41
1
41
1
41
1
41
1
41
1
41
1
41
1
41
1
41
1
41
1
41
1
41
1
41
1
41
1
41
1
10
199.46400139815978
20
0.16799960280320381
30
0
10
199.40947652986728
20
0.18348932202339394
30
0
10
199.2336256358719
20
0.23361894801103095
30
0
10
198.92176423427938
20
0.3242319788505541
30
0
10
198.49600171745169
20
0.45673628152918305
30
0
10
197.96200999967465
20
0.63422388027519205
30
0
10
197.28696517118718
20
0.85211308740926928
30
0
10
196.49844082151253
20
1.0928051746213698
30
0
10
195.62329989321032
20
1.3513739734767065
30
0
10
194.70607705349244
20
1.6208654756514398
30
0
10
193.77624775787294
20
1.89643540079543
30
0
10
192.83615275224648
20
2.1770147768810379
30
0
10
191.87680160038806
20
2.4631386107711668
30
0
10
190.8844193777536
20
2.7560624389586312
30
0
10
189.85264295571423
20
3.0560978039825155
30
0
10
188.78326724882342
20
3.3625100799491374
30
0
10
187.68222649321973
20
3.6740621166017391
30
0
10
186.55712249057564
20
3.9893478390472454
30
0
10
185.41378498224589
20
4.3072587747587736
30
0
10
184.25428283099993
20
4.6272482300288473
30
0
10
183.07840974548566
20
4.9491082550431411
30
0
10
181.88462563155954
20
5.2728221846999865
30
0
10
180.67112964120588
20
5.5984008792741538
30
0
10
179.43707375155071
20
5.9256938010482427
30
0
10
178.18297459731798
20
6.2543319009574123
30
0
10
176.91012723780062
20
6.5838326619227914
30
0
10
175.620270128958
20
6.9136648655398369
30
0
10
174.31517028669339
20
7.2433250910182911
30
0
10
172.9961887502532
20
7.57242036997937
30
0
10
171.66403062475825
20
7.9007116518390665
30
0
10
170.3189844295128
20
8.2280560063763488
30
0
10
168.96106074520935
20
8.5543697021036884
30
0
10
167.59017456293924
20
8.8795819735610202
30
0
10
166.20630073004261
20
9.2035950692998885
30
0
10
164.80966268915341
20
9.526235519586514
30
0
10
163.40068968884998
20
9.8472699260654224
30
0
10
161.97993821909861
20
10.166430824875736
30
0
10
160.54802510330535
20
10.483439315522777
30
0
10
159.10555743585547
20
10.798028432928993
30
0
10
157.65305975034292
20
11.109967660925639
30
0
10
156.19091448723108
20
11.41908266900791
30
0
10
154.71940471407243
20
11.725238859426009
30
0
10
153.23874598088892
20
12.028328762376164
30
0
10
151.74912293898825
20
12.328257720570551
30
0
10
150.25072259365882
20
12.624930832199322
30
0
10
148.7437721982721
20
12.918238088155885
30
0
10
147.22856544669722
20
13.208044129652031
30
0
10
145.70543927332886
20
13.494197575977982
30
0
10
144.17475767801213
20
13.776537564510665
30
0
10
142.63689270549287
20
14.054901425997848
30
0
10
141.09220689537312
20
14.329131760844387
30
0
10
139.54103448946842
20
14.599084046473179
30
0
10
137.98366491925748
20
14.864633235599596
30
0
10
136.42035173568334
20
15.125669024820599
30
0
10
134.85131989698957
20
15.382091835453215
30
0
10
133.27677364776346
20
15.633808579456073
30
0
10
131.69690420785224
20
15.88072839575114
30
0
10
130.11189739523584
20
16.122758684993144
30
0
10
128.52194166058428
20
16.35980026464966
30
0
10
126.92723265908998
20
16.591749582861631
30
0
10
125.3279772349467
20
16.818502392063102
30
0
10
123.72439741331743
20
17.039956804156443
30
0
10
122.1167348321236
20
17.256016857660207
30
0
10
120.50525395922688
20
17.466595279802469
30
0
10
118.8902483610694
20
17.671618036526436
30
0
10
117.27203607537929
20
17.871022649162661
30
0
10
115.65094231479233
20
18.064749295199917
30
0
10
114.02728549907994
20
18.252733805349862
30
0
10
112.40136185269523
20
18.434899839100961
30
0
10
110.77343079922956
20
18.611151526050783
30
0
10
109.14369957507704
20
18.781365634213831
30
0
10
107.51230938213911
20
18.945384690639596
30
0
10
105.87936527263093
20
19.103036996396657
30
0
10
104.24496531301799
20
19.254156249989958
30
0
10
102.6092290382949
20
19.398600613127989
30
0
10
100.97232842179368
20
19.536273608464878
30
0
10
99.334512602961453
20
19.667140514560511
30
0
10
97.696148200801289
20
19.791255987214232
30
0
10
96.057696753879597
20
19.90874642053063
30
0
10
94.419644615329773
20
20.019758134773756
30
0
10
92.782447085745915
20
20.124415720481444
30
0
10
91.146465776098893
20
20.222775717977242
30
0
10
89.511910961226704
20
20.314783407051248
30
0
10
87.878776793793691
20
20.40022559860304
30
0
10
86.246793947276487
20
20.47869280174649
30
0
10
84.615540870069907
20
20.549626783660916
30
0
10
82.984543161333036
20
20.612361361345208
30
0
10
81.353375322314122
20
20.666165376192751
30
0
10
79.721766376274786
20
20.710285615604999
30
0
10
78.08969243086824
20
20.743987696009484
30
0
10
76.457503848252401
20
20.766603051697864
30
0
10
74.825885170653748
20
20.777545890880418
30
0
10
73.195733951216852
20
20.776315772509669
30
0
10
71.56806625302778
20
20.762504527273009
30
0
10
69.943908763759183
20
20.735801832601215
30
0
10
68.32420201350196
20
20.696000326797446
30
0
10
66.709685925368461
20
20.643003445018579
30
0
10
65.100833479051673
20
20.576824183111771
30
0
10
63.497931042720438
20
20.49755513292191
30
0
10
61.901133682641962
20
20.405343426808102
30
0
10
60.310530055597276
20
20.300363865613647
30
0
10
58.726203800506759
20
20.182792564228585
30
0
10
57.148295034325159
20
20.052780989586712
30
0
10
55.577065610113735
20
19.910428160075753
30
0
10
54.012876410543228
20
19.75579145684646
30
0
10
52.456158999096367
20
19.588899854611206
30
0
10
50.90738968955398
20
19.409766147920529
30
0
10
49.367061796857719
20
19.218399876479783
30
0
10
47.835660544307039
20
19.014819304380616
30
0
10
46.313631976968992
20
18.799065477398823
30
0
10
44.801387473326557
20
18.571204059561548
30
0
10
43.299318831967085
20
18.331323615550314
30
0
10
41.807809670380756
20
18.079535008926847
30
0
10
40.327248691678896
20
17.815970503677818
30
0
10
38.858041387615692
20
17.540782602236888
30
0
10
37.4006243857268
20
17.254144015532091
30
0
10
35.955465370839022
20
16.956240270629564
30
0
10
34.523058766645931
20
16.647260049282355
30
0
10
33.103922829445807
20
16.32738634298261
30
0
10
31.698596160091132
20
15.996787143575052
30
0
10
30.307634450790474
20
15.655606620340425
30
0
10
28.931607165444902
20
15.303955318042792
30
0
10
27.571095355243251
20
14.941930407171069
30
0
10
26.226689895782478
20
14.569635998204243
30
0
10
24.898988777296157
20
14.187204925281092
30
0
10
23.588596596486944
20
13.794816526059604
30
0
10
22.29611870769952
20
13.392724406029526
30
0
10
21.022173666747403
20
12.981249800964383
30
0
10
19.76742895876518
20
12.560730746889352
30
0
10
18.532632056678235
20
12.131480617744074
30
0
10
17.318640940551351
20
11.693746420197312
30
0
10
16.126460614160564
20
11.247658785134737
30
0
10
14.957259817679265
20
10.793210693392867
30
0
10
13.812305253331905
20
10.330357373152058
30
0
10
12.692902795881103
20
9.8591054006206829
30
0
10
11.600345762292203
20
9.3795927223739994
30
0
10
10.535836988698644
20
8.8922040455148608
30
0
10
9.5004973078078496
20
8.397569466158215
30
0
10
8.4955782070623655
20
7.8962939982197167
30
0
10
7.5226389997107068
20
7.3887262585164928
30
0
10
6.5837280082799694
20
6.8747412141162965
30
0
10
5.6815886568572802
20
6.3534386552041999
30
0
10
4.8196120636795001
20
5.823607709685211
30
0
10
4.0017075554087098
20
5.2844525544376513
30
0
10
3.2322491403299134
20
4.7360553244273049
30
0
10
2.5158683709628549
20
4.1803705733326844
30
0
10
1.8583057309983406
20
3.6194031814616761
30
0
10
1.2677175638148985
20
3.0533074526819486
30
0
10
0.75551450907932716
20
2.4772895059500568
30
0
10
0.33817442321797014
20
1.8825794761803758
30
0
10
0.03854321361222076
20
1.266230163341894
30
0
10
-0.10963405769345635
20
0.64221149041415748
30
0
10
-0.067739859682252074
20
0.043296396631651017
30
0
10
0.18240411168754442
20
-0.49630526908078498
30
0
10
0.61450071466168099
20
-0.95547083255592913
30
0
10
1.178785341605759
20
-1.3267489976796134
30
0
10
1.8344057294161253
20
-1.6156551304440712
30
0
10
2.5604983209540371
20
-1.8372908968823669
30
0
10
3.3460542385771808
20
-2.0092978437849243
30
0
10
4.1840755538862364
20
-2.1444149349418744
30
0
10
5.0678827425994992
20
-2.2485805808657027
30
0
10
5.992132379876506
20
-2.3244388857878482
30
0
10
6.9523743681994148
20
-2.3733479727387947
30
0
10
7.9452073915889709
20
-2.3978659343025366
30
0
10
8.967974184433869
20
-2.4010647318557026
30
0
10
10.018581806750822
20
-2.3861137812881781
30
0
10
11.0952632673987
20
-2.3557373831005344
30
0
10
12.196379810225508
20
-2.3117764189419892
30
0
10
13.32043777011566
20
-2.2554530053654127
30
0
10
14.466096414332043
20
-2.187604657467622
30
0
10
15.63217589801245
20
-2.1089120845955782
30
0
10
16.817672884566324
20
-2.0201730392728638
30
0
10
18.021732810307569
20
-1.9223296197365258
30
0
10
19.243601266533549
20
-1.8163754625538822
30
0
10
20.482581065180639
20
-1.7032997777047059
30
0
10
21.73798907078119
20
-1.5840187578210112
30
0
10
23.009107516952888
20
-1.4593052830914941
30
0
10
24.295206398087117
20
-1.3298071615980271
30
0
10
25.59557427885704
20
-1.1960776321666668
30
0
10
26.909547332973528
20
-1.0586019859165841
30
0
10
28.236536328208292
20
-0.91782451527784248
30
0
10
29.576061735083453
20
-0.77417869723532473
30
0
10
30.927734781136262
20
-0.62809220738036631
30
0
10
32.291223838368936
20
-0.47998467392964195
30
0
10
33.666224703567856
20
-0.33026785703650891
30
0
10
35.052431628685184
20
-0.17934488795913031
30
0
10
36.449502261183149
20
-0.027609724997399346
30
0
10
37.857045437594323
20
0.1245528260581536
30
0
10
39.274646635815785
20
0.27676574400080334
30
0
10
40.701884357629005
20
0.42865882140023481
30
0
10
42.138350743928427
20
0.57986739077742033
30
0
10
43.583669039999009
20
0.73003151164477664
30
0
10
45.037515891550122
20
0.87879410197566976
30
0
10
46.49961715917761
20
1.0258055648808753
30
0
10
47.969736516277656
20
1.1707302505401171
30
0
10
49.447666463411281
20
1.3132522619974483
30
0
10
50.933218345412925
20
1.4530816250972172
30
0
10
52.426212770724099
20
1.5899600970622711
30
0
10
53.92646993408259
20
1.7236676987819659
30
0
10
55.433797314299689
20
1.8540099192378698
30
0
10
56.947977203506987
20
1.9808041666744316
30
0
10
58.468754352764378
20
2.1038665249678217
30
0
10
59.995823443008661
20
2.2229983154915525
30
0
10
61.528816916916959
20
2.3379728968839983
30
0
10
63.067291840323428
20
2.448521932352782
30
0
10
64.610784542640701
20
2.554355261682471
30
0
10
66.15886679426616
20
2.6551813470741488
30
0
10
67.711200543897064
20
2.7507274306252034
30
0
10
69.267595249412707
20
2.8407599883247654
30
0
10
70.8280594551576
20
2.9251046523399933
30
0
10
72.392867274963692
20
3.0036674431764139
30
0
10
73.962468127482964
20
3.0764430555279452
30
0
10
75.537374980295681
20
3.1435218427284894
30
0
10
77.118062469786338
20
3.2050965849696751
30
0
10
78.704855798929529
20
3.261470892986404
30
0
10
80.297835400675723
20
3.3130633308749182
30
0
10
81.896704797965356
20
3.3604225033466406
30
0
10
83.500831793082213
20
3.4041894724745774
30
0
10
85.109373890020152
20
3.4450341780977918
30
0
10
86.721375756347285
20
3.4836010053490432
30
0
10
88.335881356741126
20
3.520448467182189
30
0
10
89.95203268546598
20
3.5559962335283286
30
0
10
91.569191481647351
20
3.5904572953351792
30
0
10
93.186993639004768
20
3.6238155312091314
30
0
10
94.805266436099885
20
3.6558965952997347
30
0
10
96.423974376086363
20
3.6864193353827899
30
0
10
98.043153802442617
20
3.715054795327863
30
0
10
99.662851884749998
20
3.741482391377386
30
0
10
101.28306474627072
20
3.7654463145408017
30
0
10
102.90367316977398
20
3.7868145459158429
30
0
10
104.52446527350502
20
3.805553156659367
30
0
10
106.14516330842598
20
3.8216966017408112
30
0
10
107.76544853595084
20
3.8353199666102693
30
0
10
109.38498781250135
20
3.8465093158329693
30
0
10
111.00345734413114
20
3.855335367247914
30
0
10
112.62057289083452
20
3.861819469735023
30
0
10
114.23609431465562
20
3.86593029688136
30
0
10
115.84981108958718
20
3.8676033686708022
30
0
10
117.46153343745331
20
3.8667537938335843
30
0
10
119.07108097825341
20
3.8632920787078446
30
0
10
120.67827284162804
20
3.8571379814698297
30
0
10
122.28291620357551
20
3.8482367410609672
30
0
10
123.88479840403366
20
3.8365695811928564
30
0
10
125.48369221274547
20
3.82214288411366
30
0
10
127.07935913706534
20
3.8049805462287125
30
0
10
128.67155346471165
20
3.7851151474784057
30
0
10
130.26002605827907
20
3.7625795013645185
30
0
10
131.84452810178072
20
3.737398338031964
30
0
10
133.42481528634548
20
3.7095791276997412
30
0
10
135.0006442473595
20
3.6791176363449889
30
0
10
136.57176830455501
20
3.646004748245673
30
0
10
138.13793357911359
20
3.6102326956982669
30
0
10
139.69887466969877
20
3.5718018417387638
30
0
10
141.25431117558486
20
3.5307265181490637
30
0
10
142.80394216188432
20
3.4870430889404536
30
0
10
144.34745178446448
20
3.4408060688130817
30
0
10
145.88451921010284
20
3.3920797497208834
30
0
10
147.41482678645875
20
3.3409314935253835
30
0
10
148.93806970754767
20
3.2874238948194456
30
0
10
150.45396325603099
20
3.2316084421554376
30
0
10
151.96225561062485
20
3.1735159633857375
30
0
10
153.46271491290568
20
3.1131617064188633
30
0
10
154.95510298674463
20
3.0505579241109833
30
0
10
156.43915391287246
20
2.9857238315534573
30
0
10
157.91454909368369
20
2.9186972703580039
30
0
10
159.38089730249635
20
2.8495442051124624
30
0
10
160.83770357399143
20
2.7783728723379597
30
0
10
162.28440419906607
20
2.7053206144213
30
0
10
163.72042065644388
20
2.630532877123597
30
0
10
165.1452078698421
20
2.5541446019124141
30
0
10
166.55830334549955
20
2.4762611295163675
30
0
10
167.95937948240157
20
2.3969380946529153
30
0
10
169.34828417945855
20
2.316165292616791
30
0
10
170.72490589302421
20
2.2339098280906882
30
0
10
172.08905582131172
20
2.1501537341826835
30
0
10
173.44033189759838
20
2.0649371175833751
30
0
10
174.77801724022183
20
1.9783911190501915
30
0
10
176.10089653447267
20
1.8907949784763514
30
0
10
177.40743652766895
20
1.8025260678179509
30
0
10
178.69614047005177
20
1.7139581168530593
30
0
10
179.96588267348778
20
1.6253666214647524
30
0
10
181.21617586628051
20
1.5368509514882391
30
0
10
182.44765247034394
20
1.4482010151835976
30
0
10
183.66172305261603
20
1.3589785220604724
30
0
10
184.85949696784292
20
1.2687915985776015
30
0
10
186.04082259378376
20
1.1775369078135942
30
0
10
187.20346050657844
20
1.0856099100809466
30
0
10
188.34173336444763
20
0.99424453454680672
30
0
10
189.44833336825357
20
0.90506976141608919
30
0
10
190.51756061866502
20
0.81931221261921705
30
0
10
191.54763958346729
20
0.73722528357996187
30
0
10
192.54448007109272
20
0.65716510068803835
30
0
10
193.52103761474564
20
0.57574176197784088
30
0
10
194.48564864004877
20
0.49067554677074826
30
0
10
195.43576440408174
20
0.40231819852044826
30
0
10
196.34280949759656
20
0.3173802720919921
30
0
10
197.16370451209062
20
0.24598793623615012
30
0
10
197.87217182065987
20
0.1935298605646566
30
0
10
198.43588966427617
20
0.15442410263469394
30
0
10
198.88151606889812
20
0.11378575068339297
30
0
10
199.20513575536137
20
0.077847370955588413
30
0
10
199.3872402142479
20
0.056658550430463243
30
0
10
199.44400802835304
20
0.049999058185855955
30
0
0
ENDSEC
0
SECTION
2
OBJECTS
0
DICTIONARY
5
C
100
AcDbDictionary
3
ACAD_GROUP
350
D
3
ACAD_MLINESTYLE
350
17
0
DICTIONARY
5
D
100
AcDbDictionary
0
DICTIONARY
5
1A
330
C
100
AcDbDictionary
0
DICTIONARY
5
17
100
AcDbDictionary
0
ENDSEC
0
EOF
