0
SECTION
2
HEADER
9
$INSUNITS
70
4
9
$ACADVER
1
AC1014
9
$HANDSEED
5
FFFF
0
ENDSEC
0
SECTION
2
TABLES
0
TABLE
2
VPORT
5
8
100
AcDbSymbolTable
0
ENDTAB
0
TABLE
2
LTYPE
5
5
100
AcDbSymbolTable
0
LTYPE
5
14
100
AcDbSymbolTableRecord
100
AcDbLinetypeTableRecord
2
BYBLOCK
70
0
0
LTYPE
5
15
100
AcDbSymbolTableRecord
100
AcDbLinetypeTableRecord
2
BYLAYER
70
0
0
ENDTAB
0
TABLE
2
LAYER
5
2
100
AcDbSymbolTable
70
2
0
LAYER
5
50
100
AcDbSymbolTableRecord
100
AcDbLayerTableRecord
2
0
70
0
6
CONTINUOUS
0
ENDTAB
0
TABLE
2
STYLE
5
3
100
AcDbSymbolTable
70
1
0
STYLE
5
11
100
AcDbSymbolTableRecord
100
AcDbTextStyleTableRecord
2
STANDARD
70
0
0
ENDTAB
0
TABLE
2
VIEW
5
6
100
AcDbSymbolTable
70
0
0
ENDTAB
0
TABLE
2
UCS
5
7
100
AcDbSymbolTable
70
0
0
ENDTAB
0
TABLE
2
APPID
5
9
100
AcDbSymbolTable
70
2
0
APPID
5
12
100
AcDbSymbolTableRecord
100
AcDbRegAppTableRecord
2
ACAD
70
0
0
ENDTAB
0
TABLE
2
DIMSTYLE
5
A
100
AcDbSymbolTable
70
1
0
ENDTAB
0
TABLE
2
BLOCK_RECORD
5
1
100
AcDbSymbolTable
70
1
0
BLOCK_RECORD
5
1F
100
AcDbSymbolTableRecord
100
AcDbBlockTableRecord
2
*MODEL_SPACE
0
BLOCK_RECORD
5
1B
100
AcDbSymbolTableRecord
100
AcDbBlockTableRecord
2
*PAPER_SPACE
0
ENDTAB
0
ENDSEC
0
SECTION
2
BLOCKS
0
BLOCK
5
20
100
AcDbEntity
100
AcDbBlockBegin
2
*MODEL_SPACE
0
ENDBLK
5
21
100
AcDbEntity
100
AcDbBlockEnd
0
BLOCK
5
1C
100
AcDbEntity
100
AcDbBlockBegin
2
*PAPER_SPACE
0
ENDBLK
5
1D
100
AcDbEntity
100
AcDbBlockEnd
0
ENDSEC
0
SECTION
2
ENTITIES
0
LINE
5
100
100
AcDbEntity
8
0
100
AcDbLine
10
0
20
0
30
0
11
200
21
0
31
0
0
SPLINE
5
101
100
AcDbEntity
8
0
100
AcDbSpline
70
4
71
5
72
181
73
175
74
0
42
0.000000001
43
0.0000000001
44
0.0000000001
40
0
40
0
40
0
40
0
40
0
40
0
40
0.0058823529411764705
40
0.011764705882352941
40
0.017647058823529412
40
0.023529411764705882
40
0.029411764705882353
40
0.035294117647058823
40
0.041176470588235294
40
0.047058823529411764
40
0.052941176470588235
40
0.058823529411764705
40
0.064705882352941169
40
0.070588235294117646
40
0.076470588235294124
40
0.082352941176470601
40
0.088235294117647078
40
0.094117647058823556
40
0.10000000000000003
40
0.10588235294117651
40
0.11176470588235299
40
0.11764705882352947
40
0.12352941176470594
40
0.12941176470588242
40
0.1352941176470589
40
0.14117647058823538
40
0.14705882352941185
40
0.15294117647058833
40
0.15882352941176481
40
0.16470588235294129
40
0.17058823529411776
40
0.17647058823529424
40
0.18235294117647072
40
0.18823529411764719
40
0.19411764705882367
40
0.20000000000000015
40
0.20588235294117663
40
0.2117647058823531
40
0.21764705882352958
40
0.22352941176470606
40
0.22941176470588254
40
0.23529411764705901
40
0.24117647058823549
40
0.24705882352941197
40
0.25294117647058845
40
0.2588235294117649
40
0.26470588235294135
40
0.2705882352941178
40
0.27647058823529425
40
0.2823529411764707
40
0.28823529411764715
40
0.29411764705882359
40
0.30000000000000004
40
0.30588235294117649
40
0.31176470588235294
40
0.31764705882352939
40
0.32352941176470584
40
0.32941176470588229
40
0.33529411764705874
40
0.34117647058823519
40
0.34705882352941164
40
0.35294117647058809
40
0.35882352941176454
40
0.36470588235294099
40
0.37058823529411744
40
0.37647058823529389
40
0.38235294117647034
40
0.38823529411764679
40
0.39411764705882324
40
0.39999999999999969
40
0.40588235294117614
40
0.41176470588235259
40
0.41764705882352904
40
0.42352941176470549
40
0.42941176470588194
40
0.43529411764705839
40
0.44117647058823484
40
0.44705882352941129
40
0.45294117647058774
40
0.45882352941176419
40
0.46470588235294064
40
0.47058823529411709
40
0.47647058823529354
40
0.48235294117646998
40
0.48823529411764643
40
0.49411764705882288
40
0.49999999999999933
40
0.50588235294117578
40
0.51176470588235223
40
0.51764705882352868
40
0.52352941176470513
40
0.52941176470588158
40
0.53529411764705803
40
0.54117647058823448
40
0.54705882352941093
40
0.55294117647058738
40
0.55882352941176383
40
0.56470588235294028
40
0.57058823529411673
40
0.57647058823529318
40
0.58235294117646963
40
0.58823529411764608
40
0.59411764705882253
40
0.59999999999999898
40
0.60588235294117543
40
0.61176470588235188
40
0.61764705882352833
40
0.62352941176470478
40
0.62941176470588123
40
0.63529411764705768
40
0.64117647058823413
40
0.64705882352941058
40
0.65294117647058703
40
0.65882352941176348
40
0.66470588235293993
40
0.67058823529411637
40
0.67647058823529282
40
0.68235294117646927
40
0.68823529411764572
40
0.69411764705882217
40
0.69999999999999862
40
0.70588235294117507
40
0.71176470588235152
40
0.71764705882352797
40
0.72352941176470442
40
0.72941176470588087
40
0.73529411764705732
40
0.74117647058823377
40
0.74705882352941022
40
0.75294117647058667
40
0.75882352941176312
40
0.76470588235293957
40
0.77058823529411602
40
0.77647058823529247
40
0.78235294117646892
40
0.78823529411764537
40
0.79411764705882182
40
0.79999999999999827
40
0.80588235294117472
40
0.81176470588235117
40
0.81764705882352762
40
0.82352941176470407
40
0.82941176470588052
40
0.83529411764705697
40
0.84117647058823342
40
0.84705882352940987
40
0.85294117647058632
40
0.85882352941176276
40
0.86470588235293921
40
0.87058823529411566
40
0.87647058823529211
40
0.88235294117646856
40
0.88823529411764501
40
0.89411764705882146
40
0.89999999999999791
40
0.90588235294117436
40
0.91176470588235081
40
0.91764705882352726
40
0.92352941176470371
40
0.92941176470588016
40
0.93529411764705661
40
0.94117647058823306
40
0.94705882352940951
40
0.95294117647058596
40
0.95882352941176241
40
0.96470588235293886
40
0.97058823529411531
40
0.97647058823529176
40
0.98235294117646821
40
0.98823529411764466
40
0.99411764705882111
40
1
40
1
40
1
40
1
40
1
40
1
41
1
41
1
41
1
41
1
41
1
41
1
41
1
41
1
41
1
41
1
41
1
41
1
41
1
41
1
41
1
41
1
41
1
41
1
41
1
41
1
41
1
41
1
41
1
41
1
41
1
41
1
41
1
41
1
41
1
41
1
41
1
41
1
41
1
41
1
41
1
41
1
41
1
41
1
41
1
41
1
41
1
41
1
41
1
41
1
41
1
41
1
41
1
41
1
41
1
41
1
41
1
41
1
41
1
41
1
41
1
41
1
41
1
41
1
41
1
41
1
41
1
41
1
41
1
41
1
41
1
41
1
41
1
41
1
41
1
41
1
41
1
41
1
41
1
41
1
41
1
41
1
41
1
41
1
41
1
41
1
41
1
41
1
41
1
41
1
41
1
41
1
41
1
41
1
41
1
41
1
41
1
41
1
41
1
41
1
41
1
41
1
41
1
41
1
41
1
41
1
41
1
41
1
41
1
41
1
41
1
41
1
41
1
41
1
41
1
41
1
41
1
41
1
41
1
41
1
41
1
41
1
41
1
41
1
41
1
41
1
41
1
41
1
41
1
41
1
41
1
41
1
41
1
41
1
41
1
41
1
41
1
41
1
41
1
41
1
41
1
41
1
41
1
41
1
41
1
41
1
41
1
41
1
41
1
41
1
41
1
41
1
41
1
41
1
41
1
41
1
41
1
41
1
41
1
41
1
41
1
41
1
41
1
41
1
41
1
41
1
41
1
41
1
41
1
41
1
41
1
41
1
41
1
41
1
41
1
41
1
41
1
41
1
41
1
41
1
41
1
10
200
20
0.26000000000000001
30
0
10
199.54462640490328
20
0.3843808630249213
30
0
10
198.64302398358578
20
0.63023700200019928
30
0
10
197.31805558114129
20
0.99030423492044362
30
0
10
195.60629659386962
20
1.452960803651909
30
0
10
193.554310983341
20
2.0030633759321521
30
0
10
191.57866949228219
20
2.5275033544479273
30
0
10
189.65687150562647
20
3.0313386709726293
30
0
10
187.75081345164719
20
3.5231408635039396
30
0
10
185.80509536975535
20
4.0153613837299735
30
0
10
183.75854515541644
20
4.5216347286051457
30
0
10
181.55443053147721
20
5.0543817707273941
30
0
10
179.15033721839984
20
5.6224999385184935
30
0
10
176.5302033997115
20
6.2285304933356764
30
0
10
173.7085544921228
20
6.8677084717471857
30
0
10
170.72058008385429
20
7.5304261319619652
30
0
10
167.61532606103404
20
8.2039469668156091
30
0
10
164.44776627421561
20
8.874386016600873
30
0
10
161.27106387207255
20
9.5286535634475911
30
0
10
158.12943220973239
20
10.156233133003894
30
0
10
155.04902864390587
20
10.751486328875275
30
0
10
152.03744211128071
20
11.313666601346208
30
0
10
149.08899214734271
20
11.845385868534891
30
0
10
146.18830784393188
20
12.351537468401306
30
0
10
143.31458154639466
20
12.838043365161855
30
0
10
140.44560710034241
20
13.310649380148877
30
0
10
137.5617326412922
20
13.773764902206175
30
0
10
134.65031982326698
20
14.229111091523386
30
0
10
131.70537333210805
20
14.676144987105221
30
0
10
128.72634179842518
20
15.112788907718066
30
0
10
125.71720906715781
20
15.536049250303098
30
0
10
122.68546785396744
20
15.942688825554921
30
0
10
119.64113696741478
20
16.32985925499128
30
0
10
116.59577919699785
20
16.695790707097157
30
0
10
113.56146597231483
20
17.040340496025419
30
0
10
110.54928656515202
20
17.364438457665081
30
0
10
107.56787074743897
20
17.669629575287232
30
0
10
104.62196631016957
20
17.957588910286805
30
0
10
101.7108547138257
20
18.229627155126774
30
0
10
98.827155800296879
20
18.486249591700393
30
0
10
95.954680436967905
20
18.726571195617844
30
0
10
93.069473810869709
20
18.94822283820195
30
0
10
90.145565053388083
20
19.147988616080532
30
0
10
87.159659593127031
20
19.322273033913447
30
0
10
84.096113267453561
20
19.467626371636197
30
0
10
80.952121486083854
20
19.581269072640833
30
0
10
77.742035799103292
20
19.661560666706109
30
0
10
74.504063182295681
20
19.708636164785545
30
0
10
71.294410979301915
20
19.72414543781915
30
0
10
68.176400755253468
20
19.710632154780921
30
0
10
65.211225404015352
20
19.671030456801116
30
0
10
62.44799723483532
20
19.608111252193503
30
0
10
59.914154232978412
20
19.523953470034318
30
0
10
57.605575470560062
20
19.419396618856414
30
0
10
55.477164410548021
20
19.293521539242789
30
0
10
53.460329992421727
20
19.144517961257915
30
0
10
51.480786390373297
20
18.970583960901976
30
0
10
49.475037260710515
20
18.770721989764848
30
0
10
47.410216571006913
20
18.545793029408184
30
0
10
45.29369440349214
20
18.298790877070783
30
0
10
43.153893397093498
20
18.032997735421798
30
0
10
41.025362210642847
20
17.750380568054705
30
0
10
38.934046964664589
20
17.450182103479776
30
0
10
36.877912309489481
20
17.12672330138551
30
0
10
34.827646208704444
20
16.77033210240274
30
0
10
32.746715073198807
20
16.371213036656727
30
0
10
30.607023683567913
20
15.922695702696451
30
0
10
28.404356078942889
20
15.424333057028747
30
0
10
26.179049643007058
20
14.88609590171173
30
0
10
24.003183395836896
20
14.325793060523546
30
0
10
21.955786802557618
20
13.764015170503264
30
0
10
20.101531851984255
20
13.219919462665491
30
0
10
18.469031503906052
20
12.70661088828488
30
0
10
17.026469121255474
20
12.226794093710867
30
0
10
15.702062201294673
20
11.770270248230531
30
0
10
14.408185650214529
20
11.313436784568431
30
0
10
13.06531956126808
20
10.814448289868292
30
0
10
11.622102029270602
20
10.223587141945083
30
0
10
10.071331756637257
20
9.5130714581897244
30
0
10
8.4648376116439543
20
8.6999148797384187
30
0
10
6.9340009884265141
20
7.8761906395685006
30
0
10
5.6122820102732449
20
7.1405313893300812
30
0
10
4.5724754781740797
20
6.5404787635721826
30
0
10
3.7218818362410633
20
5.9828498558765455
30
0
10
2.8345742958469442
20
5.2494586703304611
30
0
10
1.762473588860574
20
4.1588958957105344
30
0
10
0.66920198595262903
20
2.7324279522575861
30
0
10
-0.076878486326963716
20
1.1594528051394772
30
0
10
-0.14072052568763568
20
-0.32361558460270701
30
0
10
0.55115223226764676
20
-1.5343266428060138
30
0
10
1.6727279049068546
20
-2.4286665433006296
30
0
10
2.8098849861596049
20
-3.046557473017014
30
0
10
3.7581703809684495
20
-3.4781452491318983
30
0
10
4.6878635378227944
20
-3.8220833233872491
30
0
10
5.8474721532867253
20
-4.1566553255448628
30
0
10
7.3010323270282633
20
-4.4987015051933064
30
0
10
8.9431734081179162
20
-4.8213381337055461
30
0
10
10.6130722829808
20
-5.0853732393885362
30
0
10
12.187015313337888
20
-5.2714100842736773
30
0
10
13.636904525871
20
-5.3944719623845474
30
0
10
14.992836238973462
20
-5.4818515716530491
30
0
10
16.328104451281764
20
-5.5594346106190109
30
0
10
17.735692509509246
20
-5.634360207629693
30
0
10
19.303164086779525
20
-5.7025613779815014
30
0
10
21.089321265891719
20
-5.7552640515286804
30
0
10
23.092910486929075
20
-5.7871996851093055
30
0
10
25.259238979659866
20
-5.7980411526791187
30
0
10
27.508869991628337
20
-5.7899985685635489
30
0
10
29.760051311135648
20
-5.7665545965967056
30
0
10
31.952602781856125
20
-5.7307973233842908
30
0
10
34.074195819261405
20
-5.683743341056271
30
0
10
36.146745736571795
20
-5.6250174931569923
30
0
10
38.20739664748973
20
-5.553885688394181
30
0
10
40.292108451558811
20
-5.4701181044543361
30
0
10
42.416631132352649
20
-5.3750186373124356
30
0
10
44.563017593166194
20
-5.2721078904006706
30
0
10
46.698018124844779
20
-5.1658322304883786
30
0
10
48.788862153871534
20
-5.0604270401735905
30
0
10
50.818329932308892
20
-4.9588418614306748
30
0
10
52.804222026029962
20
-4.861349638360851
30
0
10
54.802548853756278
20
-4.7653089947078184
30
0
10
56.885903406526701
20
-4.6666808308423899
30
0
10
59.127008920673205
20
-4.5611781786945791
30
0
10
61.581742046131012
20
-4.4454557090565956
30
0
10
64.268463921773474
20
-4.3185533918421051
30
0
10
67.168945220849167
20
-4.1818456150598413
30
0
10
70.240641531295879
20
-4.0382041578321175
30
0
10
73.425400641384343
20
-3.891408231730427
30
0
10
76.659619266759933
20
-3.7454542286684656
30
0
10
79.883841685020343
20
-3.6039037729184882
30
0
10
83.052443370986694
20
-3.4692266328888492
30
0
10
86.143706347825102
20
-3.3421143965064659
30
0
10
89.155297956260767
20
-3.2218679258266958
30
0
10
92.099145052194601
20
-3.1068297428095932
30
0
10
94.996575626896686
20
-2.9947955338508963
30
0
10
97.873256763313066
20
-2.8834435802544696
30
0
10
100.7544378278058
20
-2.7707349350371273
30
0
10
103.65954179243164
20
-2.6553779671644548
30
0
10
106.5986856357888
20
-2.537101540572158
30
0
10
109.57484938938504
20
-2.4163685126585586
30
0
10
112.58504509536746
20
-2.2941870553593322
30
0
10
115.62187517921105
20
-2.1718865909781178
30
0
10
118.6749322940336
20
-2.0509018631110552
30
0
10
121.73224596153273
20
-1.9325700309265024
30
0
10
124.78175998729243
20
-1.8178810067774545
30
0
10
127.81257105601591
20
-1.707426592492306
30
0
10
130.81596237389761
20
-1.6015011263789167
30
0
10
133.78651179489833
20
-1.5001581527967631
30
0
10
136.72313996323749
20
-1.4032847691687247
30
0
10
139.63025428585266
20
-1.3106691944566395
30
0
10
142.51869008379114
20
-1.2220692365851302
30
0
10
145.4071744400452
20
-1.1372856487559075
30
0
10
148.31856283544002
20
-1.0561729953717542
30
0
10
151.27532922361868
20
-0.9786416989418435
30
0
10
154.29537439639742
20
-0.90466302472296434
30
0
10
157.38757769163635
20
-0.83427331502049129
30
0
10
160.5477395429364
20
-0.76757745998775384
30
0
10
163.7536777141996
20
-0.70475534298091835
30
0
10
166.96270682452803
20
-0.64605915332825936
30
0
10
170.12086698511624
20
-0.59176529217721263
30
0
10
173.17072555436437
20
-0.54213154863036861
30
0
10
176.05952937218416
20
-0.4973535364699162
30
0
10
178.74766818559254
20
-0.45751845040657679
30
0
10
181.21593457413283
20
-0.42256690536980912
30
0
10
183.4759488456838
20
-0.39223412679135217
30
0
10
185.56904787174432
20
-0.36606595630921479
30
0
10
187.55293982259195
20
-0.3435138429093425
30
0
10
189.4912574929258
20
-0.3240115288072124
30
0
10
191.44270025753633
20
-0.30705334633915721
30
0
10
193.44839164655454
20
-0.29228673700035557
30
0
10
195.53244011843688
20
-0.27950410382534752
30
0
10
197.27216277428849
20
-0.27078070869369186
30
0
10
198.61952404997137
20
-0.2650677730021947
30
0
10
199.53668770968306
20
-0.26162781255576811
30
0
10
200
20
-0.26000000000000001
30
0
0
SPLINE
5
102
100
AcDbEntity
8
0
100
AcDbSpline
70
4
71
5
72
15
73
9
74
0
42
0.000000001
43
0.0000000001
44
0.0000000001
40
0
40
0
40
0
40
0
40
0
40
0
40
0.10000000000000001
40
0.20000000000000001
40
0.30000000000000004
40
0.33908463347313994
40
0.33908463347313994
40
0.33908463347313994
40
0.33908463347313994
40
0.33908463347313994
40
0.33908463347313994
41
1
41
1
41
1
41
1
41
1
41
1
41
1
41
1
41
1
10
200
20
0.26000000000000001
30
0
10
200.05526467736684
20
0.22630576857368243
30
0
10
200.14996453207397
20
0.15978330673599064
30
0
10
200.24453454479266
20
0.062597139382670045
30
0
10
200.2695379589824
20
-0.042770748549775209
30
0
10
200.19765917192785
20
-0.14283840056428279
30
0
10
200.09740024061989
20
-0.21068262142567457
30
0
10
200.02239164645323
20
-0.24923742997465473
30
0
10
200
20
-0.26000000000000001
30
0
0
ENDSEC
0
SECTION
2
OBJECTS
0
DICTIONARY
5
C
100
AcDbDictionary
3
ACAD_GROUP
350
D
3
ACAD_MLINESTYLE
350
17
0
DICTIONARY
5
D
100
AcDbDictionary
0
DICTIONARY
5
1A
330
C
100
AcDbDictionary
0
DICTIONARY
5
17
100
AcDbDictionary
0
ENDSEC
0
EOF
